<svg width="72" height="72" viewBox="0 0 72 72" fill="none" xmlns="http://www.w3.org/2000/svg">
<path d="M41.3333 18.381L41.4762 18.4286L41.8095 23.6667L41.9047 25.7143L42.0952 28.6667L42.1904 30.3333L42.2857 32.4762L42.4285 34.4286V35.0952L41 35.4286L40.4285 35.5714L40.1904 35.2381L39.5714 33.9048L38.7143 32.0952L38.1428 30.9048L37.4762 29.5238L36.8571 28.1905L36.1904 26.8095L35.6666 25.7143L35 24.2857L34.2381 22.7143L33.4285 21V20.9048L33.1904 21L32.7143 21.4286L31.8571 22.2857H31.7619L31.6666 22.4762L30.9047 23.2381H30.8095V23.3333L30.4285 23.6667L29.5238 24.5714L29.1428 24.9048L28.4762 25.5714L28.5238 25.7619L29.0476 26.3333L32.3333 29.619L32.7143 29.9524V30.0476L32.9047 30.1429V30.2381L33.0952 30.3333L38.4762 35.7143L38.7619 35.9048V36L38.5714 35.9524L36.9524 34.3333L36.8571 34.2857V34.1905L36.6666 34.0952V34L36.4762 33.9048L35.8571 33.381L35.3809 32.9524L35 32.5714L34.9047 32.5238V32.4286L34.7143 32.3333L34.1904 31.8571L33.6666 31.4286L32.8571 30.6667L32.1428 30.0476L31.5238 29.4762L31.1904 29.1429L30.8095 28.8095L30.4285 28.4286L30.0476 28.0952L29.0952 27.2381L28.3333 26.5238L27.6666 25.9524L27.0476 25.381L26.5238 24.9524L24.9524 26.5238L24.619 26.9048L24.1904 27.3333L23.8571 27.7143L23.1904 28.4286L22.8571 28.7619L22.5238 29.1429L21.7143 29.9524L21.619 30.0952H21.5238L21.4285 30.2857L20.8571 30.8571L20.5238 31.2381L19.6666 32.1905H19.5714L19.4762 32.381L18.4762 33.381L18.3809 33.5238H18.2857L18.1904 33.7143L17.8571 34.0476L17.5238 34.4286L17 35L16.5714 35.4286L16.5238 35.5238H16.4285V35.619H16.3333L16.2381 35.8095L15.3809 36.6667L15.3333 36.7619H15.2381L15.1428 36.9524L14.5714 37.5238L14.2381 37.9048L13.8095 38.381L13.5714 38.6667H13.4762L13.3809 38.8571L12.7143 39.5238L12.6666 39.619H12.5714L12.4762 39.8095L12.1428 40.1905L12.2857 40.4286L13.5238 41.1429L14.9047 41.9524L15.4285 42.2857L15.6666 42.1429L16.9524 40.8571L17.2857 40.4762L17.6666 40.0952L18 39.7143L18.7143 38.9524L19.6666 38L19.7619 37.8571H19.8571L19.9524 37.6667H20.0476L20.1428 37.4762L22.2381 35.381L22.5714 35L23.1904 34.381L23.5238 34L23.8571 33.6667L24.1904 33.2857L25.0952 32.381L25.2857 32.3333L26.6666 32.9524L28.0952 33.5714L30 34.4286L31.6666 35.1429L34.0952 36.1905L34.8095 36.5238L35.5714 36.8571L36.0476 37.0952L36.1428 37.2857L35.8571 37.2381L35.4285 37.0952L34.4285 36.7143L33.4285 36.381L31.8571 35.8095L29.3333 34.9048L27.7143 34.3333L26.4762 33.9048L25.3809 33.5238L25.1428 33.5714L24.5714 34.0952L23.8095 34.8571L23.4762 35.2381H23.3809L23.2857 35.4286H23.1904L23.0952 35.619L20.3333 38.381L20.2857 38.4762H20.1904L20.0952 38.6667H20L19.9047 38.8571L17.9047 40.8571L17.5714 41.2381L16.8095 42L16.4762 42.381L15.1428 43.7143L14.8095 44.0952L11.5714 47.3333L11.2381 47.7143L11.0476 47.9048L11 48.0952L11.4285 48.2381L12.2381 48.619L12.4285 48.5238L16.1428 44.8095L16.1904 44.7143H16.2857L16.3809 44.5238L17.0952 43.8571L17.3333 43.5714H17.4285L17.5238 43.381L22.4285 38.4762L22.5714 38.4286L23.8571 38.381L30.6666 38.2857L32.2857 38.2381L33.1904 38.1905H34.3333L34.1428 38.381L33.2381 39L32.619 39.4762L32.0952 39.9048L31.3809 40.5238L30.8095 41.0476L29.9524 41.9048L29.5238 42.4286L29.0476 42.9524L28.6666 43.4286L28.1428 44.0952L27.6666 44.7143L27 45.6667L26.5238 46.381L25.9524 47.381L25.5238 48.1429L24.9524 49.381L24.5714 50.381L24.2381 51.381L24 52.2857L23.8095 53.2857L23.7143 53.4286L7.61902 53.4762L7.71426 53.2857L9.04759 51.9524L9.42854 51.619L10.6666 50.381L11 50L11.3809 49.619L11.4762 49.4286L11.2381 49.3333L9.66664 48.619L9.61902 48.4286L10.1428 47.9048L10.4762 47.5238L11.8095 46.1905L12.1428 45.8095L12.5238 45.4286L12.8571 45.0476L13.2381 44.6667L13.5714 44.2857L14.8095 43.0476L15 42.7619L14.7143 42.7143L13.4762 42.0476L12.8571 41.6667L11.619 40.9524L10.8571 40.5238V40.381L11.4285 39.7619L11.8571 39.2857L12.4285 38.7143L12.7619 38.3333L13.1904 37.8571L13.5238 37.4762L13.9524 37.0476L14.2857 36.6667L14.5714 36.3333H14.6666L14.7619 36.1429L15.1904 35.6667L15.5238 35.2857L16.0476 34.7619L16.3809 34.381L16.8095 33.9524L17.2381 33.4286L17.9524 32.6667L18.3333 32.2857L18.6666 31.9048L18.9524 31.5714H19.0476L19.1428 31.381L19.7143 30.7143L20.2381 30.1905L20.5714 29.8095L20.9524 29.4286L21.2857 29.0476L22.1428 28.0952L22.5238 27.7143L22.8571 27.3333L23.3809 26.7619L23.8095 26.2381L24.5714 25.4762L24.9047 25.0952L25.4762 24.4762L26.1428 23.7143L26.3333 23.6667L26.9524 24.2857L27.3333 24.619L27.7143 25L27.9524 25.1429L28.0952 25.0952L28.5238 24.5714L29.3333 23.7619L29.6666 23.381L31.0476 22L31.3809 21.619L31.7619 21.2381L32.0952 20.8571L32.4285 20.5238L32.7619 20.1429L33.7619 19.1429L33.9047 19.2857L34.8571 21.7143L35.4285 23.1905L35.619 23.619L35.9047 23.5714L36.2857 23.2381L36.7143 22.8095H36.8095L36.8571 22.6667L37.2381 22.3333L39.0476 20.5238H39.1428V20.4286L39.5238 20.0952L40.3333 19.2857L40.7143 18.9524L41.3333 18.381Z" fill="#5C4033"/>
<path d="M49.381 27.0476L50.9524 27.0952L52.7619 27.4762L53.8571 27.8095L54.7619 28.1905L54.9048 28.3333L55.1905 29.9048L55.4762 30.8571L55.7619 31.5714L56.1429 32.2857L56.619 32.9048L57.0476 33.381L57.8095 33.9048L58.381 34.1905L59.0952 34.381L59.4286 34.4286H60L60.8571 34.1905L61.381 33.9048L61.7619 33.619L62 33.7619L62.8571 34.619L63.2857 35.1429L63.8095 35.9048L64.1905 36.619L64.4286 37.3333L64.5238 37.8095V38.5714L64.2857 39.381L63.9524 39.9524L63.5714 40.381L63.0476 40.8095L62.4286 41.1905L61.4286 41.6667L60.619 41.9524L59.4762 42.2381L58.381 42.4286L57.0952 42.5714L56.2857 42.619H54.9048L53.9048 42.5714L52.4762 42.381L51.619 42.1429L50.8571 41.8571L49.7619 41.2857L48.8095 40.619L48.2381 40.0952L47.8571 39.7619L47.4286 39.2857L46.8571 38.5714L46.4286 37.9524L45.9048 37.0476L45.4286 36.0476L45 34.8571L44.7143 33.619L44.619 33V31.0476L44.7619 30.2857L45.0476 29.5238L45.2381 29.1429L45.6667 28.5238L46.2381 27.9524L46.8571 27.5714L47.4286 27.3333L48.4762 27.0952L49.381 27.0476Z" fill="#5C4033"/>
<path d="M33.8571 41.7143L34 41.7619L34.3333 42.2857L34.9524 43.0952L35.4286 43.7143L36.0476 44.4762L36.4762 45L36.9047 45.4762L37.3333 46L38.7619 47.5238L39.3333 48.0952L39.7143 48.4286L40.0476 48.7619L40.5714 49.1905L41.0476 49.619L41.5714 50.0476L42.2857 50.619L43.0952 51.1905L43.8571 51.7143L45.0476 52.4286L45.8095 52.8571L46.5714 53.2381L47.5714 53.7143L47.619 53.9048L47.0476 54.5714L46.5714 55.0952L46.2381 55.4762L45.9047 55.8095L45.5238 56.1429L45.0476 56.5714L44.5238 57L43.7143 57.619L42.4286 58.4762L41.2857 59.1429L40.9524 59.0952L40.0952 58.619L39.0476 57.9048L38.3809 57.4286L37.7143 56.9048L37 56.2857L36.5238 55.8571L35.7619 55.1429L35 54.381L34.6667 54L34.3333 53.6667L33.9047 53.1429L33.4286 52.619L32.9524 52L32.3333 51.2381L31.7143 50.381L30.9524 49.2857L30.5238 48.619L29.9047 47.619L29.4286 46.8095L29.4762 46.5238L30.0476 45.8095L30.5238 45.1905L30.8571 44.7619L31.4286 44.0952L31.9524 43.5238L32.2857 43.1429L32.8095 42.619L33.3333 42.1905L33.8571 41.7143Z" fill="#5C4033"/>
<path d="M42.2857 37.7143L42.4762 37.7619L42.8571 38.5238L43.1429 39.0476L43.6667 39.9048L44.2857 40.7143L44.7143 41.2381L45.2381 41.8095L45.9524 42.5238L46.6191 43.0476L47.4286 43.619L48.2857 44.0952L49.0476 44.4762L49.7619 44.7619L50.9048 45.0952L51 45.1429V45.7143L50.8095 46.8571L50.4286 48.381L50.0476 49.5238L49.6667 50.4286L49.5238 50.4762L48.2857 49.9524L47.1905 49.381L46.1429 48.7619L45.4286 48.2857L44.5238 47.6191L44.0952 47.2857L43.4762 46.7619L42.9524 46.3333L42.1905 45.619L40.3333 43.7619L40 43.381L38.8572 42.0476L38.381 41.4286L37.8572 40.7619L37.4286 40.1905L37.0952 39.7619V39.5714L37.8095 39.1905L38.8095 38.7619L39.9524 38.3333L41.0476 38L42.2857 37.7143Z" fill="#5C4033"/>
<path d="M27.3809 50.1905L27.5714 50.2857L28.0476 51.0476L28.7619 52.0952L29.3333 52.9048L29.8571 53.619L30.5238 54.4762L31.0476 55.0952L31.4762 55.619L32.0476 56.2381L32.3809 56.619L33.0476 57.3333L33.619 57.9048L33.7143 57.9524V58.0476L33.9047 58.1429L34.2381 58.4762L34.619 58.8095L35.1905 59.3333L36.4286 60.2857L36.8571 60.619L36.9524 60.7143V60.8571L36.3333 61L34.619 61.2381L33.9524 61.2857H33.0476L32.1428 61.1905L30.9524 60.9524L29.9524 60.5238L29.3333 60.2381H29.0476L28.2381 60.9048L27.5714 61.4286L27 61.9048L26.3333 62.4286L25.5238 63.0952L24.9524 63.5714L24.4286 64L23.8571 64.4762L23.4286 64.8095L22.8571 65.2857L22.3809 65.6667L21.9524 66.0952L21.5714 66.381V66.2381L22 65.7619L22.4762 65.2381L22.9524 64.619L23.5238 63.9048L23.9524 63.381L24.4762 62.7143L24.9524 62.1429L25.4762 61.4762L25.8571 61.0476L26.9047 59.7143L27.3809 59.1429L27.5714 58.8571L27.5238 58.6667L27.1905 58.1429L26.8095 57.4286L26.4762 56.5238L26.3333 55.7619V53.8095L26.4762 52.8095L26.8095 51.619L27.1905 50.5714L27.3809 50.1905Z" fill="#5C4033"/>
<path d="M52.0476 9.14286H52.3333L52.619 9.33333L52.7619 9.61905L52.8095 9.80952V10.2381L52.619 10.8571L52.4286 11.2381L52.0952 11.619L51.7619 11.8095L51.5238 11.9048L51.3333 12.3333L51 13.4762L50.6667 14.8095L50.3333 16.4286L50.0952 18.4762V20.9048L50.2857 22.4762L50.5238 23.381L50.7143 23.7619H50.8571L51.619 22.3333L52.2857 21.2381L52.7619 20.5238L53.2857 19.7619L53.8095 19.0952L54.2381 18.619L54.6667 18.0952L55.7619 17L56.8095 16.1429L57.4762 15.7143L58.2857 15.2381L58.5714 15L58.7143 14.4762L59.0952 14.0476L59.5714 13.7619L60.2381 13.5714H60.5714L61 13.7143L61.2857 14V14.3333L61 14.7619L60.6667 15.0476L60.2857 15.2381L59.7619 15.381H59.2381L58.9524 15.2857H58.6667L58.1905 15.5714L57.7143 16L57.1905 16.4286L56.9524 16.619L56.8571 16.7619H56.7619L56.6667 16.9524L56.2857 17.3333L55.8571 17.8571L55.4286 18.3333L54.8095 19.1429L54.2857 19.8571L53.6667 20.8095L53.0952 21.7619L52.3809 23.0952L51.7619 24.3333L51.1429 25.7619L50.8095 26.0476L50.5238 26L50.1905 25.619L49.8571 24.8571L49.4762 23.619L49.1905 22.2857L49.1429 21.5238V19.2381L49.1905 18.4286L49.4286 17.0476L49.7143 15.9048L50.1429 14.5238L50.619 13.2857L51.2381 12L51.1905 11.6667L51.0476 11.3333V10.5714L51.2381 9.95238L51.5714 9.47619L51.9524 9.19048L52.0476 9.14286Z" fill="#5C4033"/>
<path d="M57 29.5714H57.7143L58.3333 29.7619L59 30.1429L59.619 30.6667L60.0476 31.1905L60.3333 31.7619L60.3809 31.9048V32.2381L60.1905 32.5714L60 32.7143L59.8095 32.7619H59.3333L58.7143 32.5714L58 32.1905L57.5714 31.8571L57.1905 31.5238L56.8571 31.0476L56.619 30.5714L56.5714 30.4286V30L56.8095 29.6667L57 29.5714Z" fill="#5C4033"/>
</svg>
