<svg width="41" height="42" viewBox="0 0 41 42" fill="none" xmlns="http://www.w3.org/2000/svg">
<path d="M6.83335 35C5.89377 35 5.08943 34.6573 4.42033 33.9719C3.75124 33.2865 3.41669 32.4625 3.41669 31.5V10.5C3.41669 9.5375 3.75124 8.71354 4.42033 8.02813C5.08943 7.34271 5.89377 7 6.83335 7H34.1667C35.1063 7 35.9106 7.34271 36.5797 8.02813C37.2488 8.71354 37.5834 9.5375 37.5834 10.5V31.5C37.5834 32.4625 37.2488 33.2865 36.5797 33.9719C35.9106 34.6573 35.1063 35 34.1667 35H6.83335ZM20.5 22.75L6.83335 14V31.5H34.1667V14L20.5 22.75ZM20.5 19.25L34.1667 10.5H6.83335L20.5 19.25ZM6.83335 14V10.5V31.5V14Z" fill="#1D1B20"/>
</svg>
